<svg width="82" height="128" viewBox="0 0 82 128" fill="none" xmlns="http://www.w3.org/2000/svg">
<path fill-rule="evenodd" clip-rule="evenodd" d="M35.7627 0.376703C22.6683 2.44685 10.9117 13.5428 4.68709 29.7057C2.86528 34.436 1.7698 38.6614 0.744193 44.9116C0.184847 48.3205 0.173911 49.0417 0.0877549 87.5249L0 126.671L0.664707 127.335L1.32941 128H40.564H79.7985L80.4632 127.335L81.1279 126.671L81.0402 87.5249C80.9521 48.3842 80.9522 48.3786 80.3507 44.6696C78.6849 34.3971 75.3408 25.3817 70.5222 18.1734C61.6081 4.83814 48.8523 -1.69291 35.7627 0.376703ZM44.2428 4.65436C51.044 6.04405 57.4481 11.6007 61.4356 19.5716C71.3275 39.3453 64.9226 67.1257 48.6994 74.8122C33.5803 81.9757 17.6721 68.1771 15.2387 45.7889C14.0706 35.0418 16.63 23.6257 22.005 15.606C26.2551 9.2649 31.2343 5.78425 38.03 4.40442C39.3087 4.14489 42.3471 4.26706 44.2428 4.65436ZM28.5878 11.1027C28.1975 11.4247 27.3189 13.6794 25.7574 18.3654C24.5118 22.1032 23.4928 25.4395 23.4928 25.7794C23.4928 26.1194 23.7876 26.6921 24.1477 27.0522C24.7019 27.6068 25.0594 27.7081 26.4816 27.714L28.1607 27.7209L26.4269 28.3142C24.1589 29.0901 22.8743 30.1056 22.0388 31.7823C21.1797 33.5062 21.1797 34.7113 22.0388 36.4352C22.8743 38.1119 24.1589 39.1274 26.4269 39.9033L28.1607 40.4965L26.4816 40.5035C25.0594 40.5093 24.7019 40.6107 24.1477 41.1653C23.7876 41.5253 23.4928 42.098 23.4928 42.4381C23.4928 42.7779 24.5118 46.1143 25.7574 49.8521C28.1322 56.979 28.4547 57.5816 29.8945 57.5816C31.3343 57.5816 31.6568 56.979 34.0316 49.8521C35.2772 46.1143 36.2962 42.7779 36.2962 42.4381C36.2962 42.098 36.0014 41.5253 35.6413 41.1653C35.0871 40.6107 34.7296 40.5093 33.3074 40.5035L31.6283 40.4965L33.3621 39.9033C35.6301 39.1274 36.9147 38.1119 37.7502 36.4352C38.6093 34.7113 38.6093 33.5062 37.7502 31.7823C36.9147 30.1056 35.6301 29.0901 33.3621 28.3142L31.6283 27.7209L33.3074 27.714C34.7296 27.7081 35.0871 27.6068 35.6413 27.0522C36.0014 26.6921 36.2962 26.1194 36.2962 25.7794C36.2962 25.4395 35.2772 22.1032 34.0316 18.3654C31.6568 11.2385 31.3343 10.6359 29.8945 10.6359C29.4869 10.6359 28.8988 10.8461 28.5878 11.1027ZM49.9267 11.1027C49.5365 11.4247 48.6578 13.6794 47.0963 18.3654C45.8507 22.1032 44.8317 25.4395 44.8317 25.7794C44.8317 26.1194 45.1265 26.6921 45.4866 27.0522C46.0409 27.6068 46.3983 27.7081 47.8205 27.714L49.4996 27.7209L47.7658 28.3142C45.4978 29.0901 44.2132 30.1056 43.3778 31.7823C42.5186 33.5062 42.5186 34.7113 43.3778 36.4352C44.2132 38.1119 45.4978 39.1274 47.7658 39.9033L49.4996 40.4965L47.8205 40.5035C46.3983 40.5093 46.0409 40.6107 45.4866 41.1653C45.1265 41.5253 44.8317 42.098 44.8317 42.4381C44.8317 42.7779 45.8507 46.1143 47.0963 49.8521C49.4711 56.979 49.7936 57.5816 51.2334 57.5816C52.6733 57.5816 52.9958 56.979 55.3705 49.8521C56.6162 46.1143 57.6351 42.7779 57.6351 42.4381C57.6351 42.098 57.3404 41.5253 56.9803 41.1653C56.426 40.6107 56.0686 40.5093 54.6463 40.5035L52.9672 40.4965L54.701 39.9033C56.9691 39.1274 58.2537 38.1119 59.0891 36.4352C59.9482 34.7113 59.9482 33.5062 59.0891 31.7823C58.2537 30.1056 56.9691 29.0901 54.701 28.3142L52.9672 27.7209L54.6463 27.714C56.0686 27.7081 56.426 27.6068 56.9803 27.0522C57.3404 26.6921 57.6351 26.1194 57.6351 25.7794C57.6351 25.4395 56.6162 22.1032 55.3705 18.3654C52.9958 11.2385 52.6733 10.6359 51.2334 10.6359C50.8259 10.6359 50.2377 10.8461 49.9267 11.1027ZM14.3936 21.1053C7.34139 38.1527 10.7063 60.238 22.2072 72.3878C24.8977 75.2302 27.2218 76.9901 30.2946 78.5121C34.0871 80.3902 36.2978 80.9055 40.564 80.9055C43.5133 80.9055 44.5503 80.7954 46.294 80.2971C55.9237 77.5444 63.7895 69.0584 67.7567 57.1422C71.5961 45.6094 71.2728 32.7721 66.857 21.4388C65.8079 18.7466 66.0789 18.976 68.2213 22.5943C72.0698 29.0941 74.7919 36.7486 76.2107 45.0609C76.6484 47.6251 76.6929 50.8521 76.7718 85.7889L76.8575 123.732H74.715H72.5724V121.598V119.464H70.4385H68.3046V121.598V123.732H36.2874H4.27045L4.35607 85.7889C4.4513 43.66 4.33767 46.4458 6.27391 38.7926C7.36113 34.4939 8.6668 30.9434 10.6935 26.7735C12.0933 23.893 14.8236 19.1715 15.0893 19.1715C15.1466 19.1715 14.8338 20.0419 14.3936 21.1053ZM30.6163 21.7055L31.1799 23.4393H29.8945H28.6091L29.1727 21.7055C29.4829 20.7519 29.8075 19.9717 29.8945 19.9717C29.9815 19.9717 30.3061 20.7519 30.6163 21.7055ZM51.9552 21.7055L52.5188 23.4393H51.2334H49.948L50.5116 21.7055C50.8219 20.7519 51.1465 19.9717 51.2334 19.9717C51.3204 19.9717 51.645 20.7519 51.9552 21.7055ZM32.1127 32.3613C32.6726 32.5609 33.3679 32.9391 33.6582 33.2018C35.3106 34.6972 32.0489 36.6262 28.7137 36.1261C27.2992 35.914 25.7902 34.9644 25.6817 34.2181C25.5238 33.1325 27.6761 31.9983 29.8945 31.9983C30.5547 31.9983 31.5528 32.1616 32.1127 32.3613ZM53.4516 32.3613C54.0115 32.5609 54.7069 32.9391 54.9971 33.2018C56.6495 34.6972 53.3879 36.6262 50.0526 36.1261C48.6381 35.914 47.1292 34.9644 47.0206 34.2181C46.8627 33.1325 49.015 31.9983 51.2334 31.9983C51.8936 31.9983 52.8917 32.1616 53.4516 32.3613ZM30.6163 46.512C30.3061 47.4656 29.9815 48.2458 29.8945 48.2458C29.8075 48.2458 29.4829 47.4656 29.1727 46.512L28.6091 44.7782H29.8945H31.1799L30.6163 46.512ZM51.9552 46.512C51.645 47.4656 51.3204 48.2458 51.2334 48.2458C51.1465 48.2458 50.8219 47.4656 50.5116 46.512L49.948 44.7782H51.2334H52.5188L51.9552 46.512ZM30.5493 60.3703C30.1364 60.7829 29.8945 61.3297 29.8945 61.8493C29.8945 62.3689 30.1364 62.9158 30.5493 63.3284L31.2039 63.9832H40.564H49.924L50.5786 63.3284C50.9915 62.9158 51.2334 62.3689 51.2334 61.8493C51.2334 61.3297 50.9915 60.7829 50.5786 60.3703L49.924 59.7154H40.564H31.2039L30.5493 60.3703ZM68.3046 66.1171V70.3849H70.4385H72.5724V66.1171V61.8493H70.4385H68.3046V66.1171ZM36.951 68.9059C36.5381 69.3185 36.2962 69.8653 36.2962 70.3849C36.2962 70.9045 36.5381 71.4513 36.951 71.864C37.5674 72.4804 37.7787 72.5188 40.564 72.5188C43.3492 72.5188 43.5605 72.4804 44.1769 71.864C44.5898 71.4513 44.8317 70.9045 44.8317 70.3849C44.8317 69.8653 44.5898 69.3185 44.1769 68.9059C43.5605 68.2894 43.3492 68.251 40.564 68.251C37.7787 68.251 37.5674 68.2894 36.951 68.9059ZM68.3046 76.7866V78.9205H70.4385H72.5724V76.7866V74.6527H70.4385H68.3046V76.7866ZM15.0906 81.2859C12.6385 81.9301 10.4862 83.6935 9.34938 85.989L8.68894 87.3227L8.61105 98.4901C8.52356 111.074 8.54731 111.269 10.427 113.404C11.0176 114.075 12.0234 114.827 12.7468 115.138C14.161 115.747 31.8251 118.4 34.4482 118.399C36.3925 118.397 38.1068 117.792 39.4698 116.625L40.572 115.682L41.5506 116.541C43.0481 117.856 44.4503 118.385 46.4554 118.392C47.4218 118.395 52.4468 117.795 57.622 117.058C68.116 115.564 69.0224 115.311 70.7009 113.404C72.5852 111.264 72.6097 111.062 72.5193 98.4824L72.439 87.3227L71.5243 85.6356C70.5316 83.8047 69.3974 82.7212 67.5126 81.8034C65.7314 80.9359 62.2859 80.9645 60.4358 81.8618C58.7442 82.6823 57.1416 84.2797 56.295 85.989C55.6546 87.2824 55.6322 87.5214 55.5511 93.9039L55.4676 100.485L54.4842 100.637C53.9432 100.721 51.5226 101.037 49.1051 101.339C44.5847 101.905 43.1161 102.341 41.4455 103.615L40.564 104.288L39.6824 103.615C37.9262 102.276 36.4741 101.861 31.1671 101.184C28.34 100.824 25.946 100.528 25.8473 100.527C25.7486 100.527 25.6286 97.5555 25.5806 93.9244L25.4933 87.3227L24.5787 85.6356C23.07 82.8532 20.7542 81.3627 17.6548 81.1797C16.6846 81.1224 15.5307 81.1701 15.0906 81.2859ZM19.4286 86.0349C19.8119 86.3211 20.3731 86.8866 20.6756 87.2912C21.1936 87.9842 21.2333 88.4787 21.3589 95.7678C21.4883 103.28 21.5091 103.522 22.0642 103.971C22.4928 104.318 24.1938 104.625 28.8412 105.196C35.425 106.004 36.695 106.369 37.688 107.734C39.5384 110.279 37.5666 114.13 34.4127 114.13C32.5299 114.13 14.7764 111.52 14.1971 111.159C12.8463 110.315 12.8234 110.113 12.8234 99.102C12.8234 92.4696 12.9242 88.5582 13.108 88.0735C13.4835 87.0823 14.3694 86.1413 15.3574 85.6838C16.4203 85.1917 18.5446 85.375 19.4286 86.0349ZM66.3742 86.0349C66.7575 86.3211 67.3187 86.8868 67.6212 87.2917C68.1515 88.0018 68.1741 88.4056 68.2539 98.6115C68.3427 109.992 68.311 110.297 66.9509 111.146C66.3531 111.519 48.6293 114.13 46.6928 114.13C42.708 114.13 41.2882 109.067 44.5831 106.607C45.0769 106.239 46.7552 105.928 51.5018 105.326C54.9485 104.888 57.924 104.53 58.1139 104.529C58.3041 104.528 58.7541 104.232 59.1142 103.872L59.769 103.218V96.0212C59.769 91.571 59.8776 88.5379 60.0536 88.0735C60.4292 87.0823 61.315 86.1413 62.303 85.6838C63.3659 85.1917 65.4902 85.375 66.3742 86.0349Z" fill="#F43F5E"/>
</svg>
