<svg width="83" height="83" viewBox="0 0 83 83" fill="none" xmlns="http://www.w3.org/2000/svg">
<path d="M80.1237 8.12166C80.1237 5.17614 77.7359 2.78833 74.7904 2.78833L52.1237 2.78833C46.2327 2.78833 41.457 7.56396 41.457 13.455L41.457 80.1217L45.8753 75.7034C49.8761 71.7026 55.3023 69.455 60.9603 69.455H74.7904C77.7359 69.455 80.1237 67.0672 80.1237 64.1217V8.12166Z" stroke="#10B981" stroke-width="5.36965" stroke-linecap="round" stroke-linejoin="round"/>
<path d="M2.79004 8.12215C2.79004 5.17663 5.17785 2.78882 8.12337 2.78882L30.79 2.78882C36.6811 2.78882 41.4567 7.56445 41.4567 13.4555L41.4567 80.1222L37.0384 75.7039C33.0377 71.7031 27.6114 69.4555 21.9535 69.4555H8.12337C5.17785 69.4555 2.79004 67.0677 2.79004 64.1222L2.79004 8.12215Z" stroke="#10B981" stroke-width="5.36965" stroke-linecap="round" stroke-linejoin="round"/>
</svg>
