<svg width="95" height="128" viewBox="0 0 95 128" fill="none" xmlns="http://www.w3.org/2000/svg">
<path d="M34.6439 101.775C38.1582 109.23 34.9634 118.122 27.5082 121.637C20.0531 125.151 11.1606 121.956 7.64632 114.501C4.13207 107.046 7.32683 98.1533 14.782 94.6391C22.2372 91.1248 31.1297 94.3196 34.6439 101.775Z" stroke="#0EA5E9" stroke-width="4.54808" stroke-linecap="round" stroke-linejoin="round"/>
<path d="M34.6436 101.774L5.6561 40.2792C2.53232 33.6524 5.37211 25.7479 11.9989 22.6242L47.9958 5.65586C54.6226 2.53208 62.5271 5.37186 65.6508 11.9987L86.1542 55.4949" stroke="#0EA5E9" stroke-width="4.54808" stroke-linecap="round" stroke-linejoin="round"/>
<path d="M86.1547 55.4945C89.6689 62.9497 86.4742 71.8422 79.019 75.3564C71.5638 78.8707 62.6713 75.6759 59.1571 68.2207C55.6428 60.7655 58.8376 51.8731 66.2928 48.3588C73.7479 44.8446 82.6404 48.0393 86.1547 55.4945Z" stroke="#0EA5E9" stroke-width="4.54808" stroke-linecap="round" stroke-linejoin="round"/>
</svg>
