<svg width="65" height="64" viewBox="0 0 65 64" fill="none" xmlns="http://www.w3.org/2000/svg">
<mask id="path-1-inside-1_679_1365" fill="white">
<path d="M19.3664 47.8992C16.0664 46.7992 12.7664 48.1992 11.9664 50.9992C11.1664 53.6992 13.0664 56.7992 16.3664 57.8992C19.6664 58.9992 22.9664 57.5992 23.7664 54.7992C24.5664 51.9992 22.6664 48.8992 19.3664 47.8992"/>
</mask>
<path d="M11.9664 50.9992L14.8428 51.8515L14.847 51.8374L14.851 51.8234L11.9664 50.9992ZM20.3151 45.0532C15.893 43.5791 10.4838 45.2683 9.08186 50.1751L14.851 51.8234C15.0491 51.1301 16.2399 50.0193 18.4177 50.7453L20.3151 45.0532ZM9.09003 50.1469C7.70699 54.8147 11.0322 59.2834 15.4177 60.7453L17.3151 55.0532C15.1007 54.315 14.6259 52.5837 14.8428 51.8515L9.09003 50.1469ZM15.4177 60.7453C19.8399 62.2193 25.2491 60.5301 26.651 55.6234L20.8819 53.975C20.6838 54.6683 19.493 55.7791 17.3151 55.0532L15.4177 60.7453ZM26.651 55.6234C27.9951 50.919 24.755 46.3974 20.2365 45.0281L18.4964 50.7703C20.5779 51.401 21.1378 53.0794 20.8819 53.975L26.651 55.6234Z" fill="#F97316" mask="url(#path-1-inside-1_679_1365)"/>
<path d="M9.96771 60.2922C9.51188 60.551 8.82984 60.5076 8.27863 59.8143C7.7579 59.0356 7.95112 58.2967 8.28293 57.9893C8.66088 57.753 9.48415 57.8044 9.9332 58.453C10.4705 59.2292 10.2929 59.9709 9.96771 60.2922Z" stroke="#F97316" stroke-width="3"/>
<path d="M57.966 16.0993V16.8262L58.5365 17.2766C60.0981 18.5094 61.166 20.4855 61.166 22.6993C61.166 24.9053 60.1008 26.931 58.5361 28.4087L57.8979 29.0115L58.1108 29.8631C58.3086 30.6542 58.466 31.3989 58.466 32.0993C58.466 35.7081 55.6008 38.5993 52.166 38.5993C51.4807 38.5993 50.7603 38.4451 50.0927 38.1948L48.2404 37.5002L48.0715 39.4712C47.8343 42.239 45.5441 44.3993 42.866 44.3993C41.3937 44.3993 40.0672 43.7792 39.1267 42.8386L37.7891 41.501L36.7916 43.1082C35.2388 45.61 32.499 47.2993 29.466 47.2993C25.3209 47.2993 21.8106 44.2455 21.0392 40.2172L20.6205 38.0303L18.7511 39.2399C17.2721 40.197 15.4519 40.7993 13.566 40.7993C8.42957 40.7993 4.16602 36.5064 4.16602 31.0993C4.16602 27.7864 5.72988 24.9399 8.13787 23.2199L9.12033 22.5181L8.64473 21.4084C8.10181 20.1416 7.76602 18.845 7.76602 17.4993C7.76602 12.8973 11.4245 9.19927 15.866 9.19927C17.5708 9.19927 19.1548 9.71118 20.379 10.6089L22.0884 11.8624L22.7018 9.83335C23.8216 6.12937 27.165 3.49927 31.066 3.49927C33.4398 3.49927 35.6951 4.52226 37.3658 6.01713L38.3034 6.85605L39.2927 6.07875C40.4032 5.20624 41.8685 4.69927 43.566 4.69927C46.2551 4.69927 48.6016 6.24543 49.9756 8.56397L50.4113 9.29927H51.266H52.066C55.2738 9.29927 57.966 12.0624 57.966 15.4993V16.0993Z" stroke="#F97316" stroke-width="3"/>
</svg>
